<?xml version="1.0" standalone="no"?>
<!DOCTYPE svg PUBLIC "-//W3C//DTD SVG 20010904//EN"
 "http://www.w3.org/TR/2001/REC-SVG-20010904/DTD/svg10.dtd">
<svg version="1.0" xmlns="http://www.w3.org/2000/svg"
 width="224.000000pt" height="144.000000pt" viewBox="0 0 224.000000 144.000000"
 preserveAspectRatio="xMidYMid meet">

<g transform="translate(0.000000,144.000000) scale(0.100000,-0.100000)"
fill="#000000" stroke="none">
<path d="M1463 1133 c-55 -71 -141 -183 -191 -250 l-90 -123 -88 125 c-55 76
-96 124 -106 125 -10 0 -18 -3 -18 -6 0 -3 39 -60 88 -127 48 -66 90 -126 94
-133 5 -7 -30 -64 -90 -145 -123 -168 -118 -159 -93 -159 14 0 47 38 113 130
51 71 96 130 99 130 4 0 49 -58 100 -130 58 -80 101 -130 112 -130 9 0 17 3
17 6 0 3 -45 68 -100 144 -55 76 -100 141 -100 144 0 6 254 377 327 479 65 89
26 47 -74 -80z"/>
<path d="M60 725 c0 -278 1 -285 20 -285 19 0 20 8 22 260 l3 259 155 -226
c153 -223 348 -494 378 -523 8 -8 -108 168 -259 393 -227 339 -277 407 -296
407 l-23 0 0 -285z"/>
<path d="M540 725 l0 -285 195 0 c167 0 195 2 195 15 0 13 -26 15 -175 15
l-175 0 0 125 0 125 162 2 c118 2 162 6 166 16 3 9 -34 12 -162 12 l-166 0 0
115 0 115 175 0 c149 0 175 2 175 15 0 13 -28 15 -195 15 l-195 0 0 -285z"/>
<path d="M1430 995 c0 -12 18 -15 100 -15 l100 0 0 -270 c0 -263 0 -270 20
-270 20 0 20 7 20 270 l0 270 100 0 c82 0 100 3 100 15 0 13 -31 15 -220 15
-189 0 -220 -2 -220 -15z"/>
<path d="M2068 589 c-10 -5 -18 -21 -18 -35 0 -20 9 -29 46 -44 26 -12 44 -25
42 -33 -6 -17 -46 -21 -64 -6 -19 16 -30 4 -14 -16 15 -18 60 -20 84 -2 28 21
15 50 -31 72 -24 11 -43 25 -43 32 0 18 39 26 56 12 8 -6 18 -9 22 -5 9 10
-27 36 -47 36 -9 0 -24 -5 -33 -11z"/>
<path d="M1990 541 c0 -27 -3 -56 -6 -65 -7 -19 -40 -21 -47 -3 -2 6 -8 9 -12
5 -4 -4 -5 -14 -2 -23 9 -22 64 -20 77 4 13 25 13 131 0 131 -5 0 -10 -22 -10
-49z"/>
<path d="M1865 459 c-10 -15 3 -25 16 -12 7 7 7 13 1 17 -6 3 -14 1 -17 -5z"/>
</g>
</svg>
